<svg version="1.1" id="Layer_1" xmlns="http://www.w3.org/2000/svg" xmlns:xlink="http://www.w3.org/1999/xlink" x="0px" y="0px"
	 width="100%" viewBox="0 0 2000 2000" enable-background="new 0 0 2000 2000" xml:space="preserve">
<path fill="#090513" opacity="1.000000" stroke="none" 
	d="
M1.000000,717.000000 
	C1.000000,478.000000 1.000000,239.500000 1.000000,1.000000 
	C667.666687,1.000000 1334.333374,1.000000 2001.000000,1.000000 
	C2001.000000,667.666687 2001.000000,1334.333374 2001.000000,2001.000000 
	C1334.333374,2001.000000 667.666687,2001.000000 1.000000,2001.000000 
	C1.000000,1573.166626 1.000000,1145.333374 1.000000,717.000000 
M544.712585,128.228973 
	C520.802490,142.071625 496.474792,155.246582 473.064362,169.888138 
	C414.114441,206.757095 360.245819,250.179688 310.789124,299.011353 
	C268.509766,340.756378 230.372528,386.025452 196.301788,434.748810 
	C158.375092,488.986420 126.156227,546.393005 99.896233,607.109741 
	C74.114029,666.721741 54.407402,728.294434 40.824730,791.851807 
	C28.679707,848.681885 21.509613,906.109619 19.610865,964.148865 
	C17.722805,1021.861450 20.856783,1079.329590 29.104378,1136.539795 
	C39.001957,1205.195435 55.920010,1272.031128 79.934135,1337.065674 
	C110.336479,1419.400513 151.167816,1496.228638 202.213379,1567.642700 
	C255.327789,1641.951172 317.629333,1707.558716 389.049286,1764.429565 
	C447.632111,1811.078491 510.788055,1850.497314 578.455139,1882.688354 
	C635.168884,1909.668457 693.903076,1931.064209 754.684570,1946.742554 
	C821.003418,1963.849365 888.387695,1973.931641 956.865967,1976.888428 
	C1012.090637,1979.273071 1067.107056,1977.195557 1121.919189,1970.340332 
	C1172.717529,1963.986938 1222.754150,1953.740356 1271.945312,1939.470459 
	C1347.458618,1917.564331 1419.418213,1887.262817 1487.612549,1848.099854 
	C1536.082764,1820.263794 1581.857422,1788.552856 1624.984863,1752.955933 
	C1677.590576,1709.535889 1725.108521,1661.139404 1767.541748,1607.799438 
	C1814.164062,1549.193604 1853.583008,1486.043701 1885.770752,1418.375244 
	C1912.677002,1361.810425 1934.004517,1303.225098 1949.677002,1242.619141 
	C1965.265991,1182.335815 1974.976318,1121.094116 1978.891968,1058.902222 
	C1983.062134,992.668701 1980.611450,926.716187 1971.475464,861.028320 
	C1965.068848,814.964233 1955.377197,769.563171 1942.422485,724.872192 
	C1920.671387,649.834656 1890.574219,578.311035 1851.783691,510.504364 
	C1823.784424,461.560577 1791.788086,415.361328 1755.840454,371.866119 
	C1712.387573,319.289307 1663.998657,271.769165 1610.649536,229.344727 
	C1552.033691,182.731979 1488.879028,143.323364 1421.204956,111.149445 
	C1364.635620,84.255112 1306.033325,62.997093 1245.437500,47.276348 
	C1202.842773,36.225731 1159.721558,27.654104 1115.915649,23.213923 
	C1087.769775,20.361059 1059.536621,17.869812 1031.281372,16.713120 
	C987.637451,14.926462 944.028809,16.623684 900.544128,21.168903 
	C863.245056,25.067579 826.287781,30.952288 789.645203,38.931629 
	C746.139465,48.405514 703.540344,60.963009 661.752136,76.273834 
	C621.823853,90.903191 582.982056,108.014679 544.712585,128.228973 
z"/>
<path fill="#99ACB2" opacity="1.000000" stroke="none" 
	d="
M545.043640,128.060928 
	C582.982056,108.014679 621.823853,90.903191 661.752136,76.273834 
	C703.540344,60.963009 746.139465,48.405514 789.645203,38.931629 
	C826.287781,30.952288 863.245056,25.067579 900.544128,21.168903 
	C944.028809,16.623684 987.637451,14.926462 1031.281372,16.713120 
	C1059.536621,17.869812 1087.769775,20.361059 1115.915649,23.213923 
	C1159.721558,27.654104 1202.842773,36.225731 1245.437500,47.276348 
	C1306.033325,62.997093 1364.635620,84.255112 1421.204956,111.149445 
	C1488.879028,143.323364 1552.033691,182.731979 1610.649536,229.344727 
	C1663.998657,271.769165 1712.387573,319.289307 1755.840454,371.866119 
	C1791.788086,415.361328 1823.784424,461.560577 1851.783691,510.504364 
	C1890.574219,578.311035 1920.671387,649.834656 1942.422485,724.872192 
	C1955.377197,769.563171 1965.068848,814.964233 1971.475464,861.028320 
	C1980.611450,926.716187 1983.062134,992.668701 1978.891968,1058.902222 
	C1974.976318,1121.094116 1965.265991,1182.335815 1949.677002,1242.619141 
	C1934.004517,1303.225098 1912.677002,1361.810425 1885.770752,1418.375244 
	C1853.583008,1486.043701 1814.164062,1549.193604 1767.541748,1607.799438 
	C1725.108521,1661.139404 1677.590576,1709.535889 1624.984863,1752.955933 
	C1581.857422,1788.552856 1536.082764,1820.263794 1487.612549,1848.099854 
	C1419.418213,1887.262817 1347.458618,1917.564331 1271.945312,1939.470459 
	C1222.754150,1953.740356 1172.717529,1963.986938 1121.919189,1970.340332 
	C1067.107056,1977.195557 1012.090637,1979.273071 956.865967,1976.888428 
	C888.387695,1973.931641 821.003418,1963.849365 754.684570,1946.742554 
	C693.903076,1931.064209 635.168884,1909.668457 578.455139,1882.688354 
	C510.788055,1850.497314 447.632111,1811.078491 389.049286,1764.429565 
	C317.629333,1707.558716 255.327789,1641.951172 202.213379,1567.642700 
	C151.167816,1496.228638 110.336479,1419.400513 79.934135,1337.065674 
	C55.920010,1272.031128 39.001957,1205.195435 29.104378,1136.539795 
	C20.856783,1079.329590 17.722805,1021.861450 19.610865,964.148865 
	C21.509613,906.109619 28.679707,848.681885 40.824730,791.851807 
	C54.407402,728.294434 74.114029,666.721741 99.896233,607.109741 
	C126.156227,546.393005 158.375092,488.986420 196.301788,434.748810 
	C230.372528,386.025452 268.509766,340.756378 310.789124,299.011353 
	C360.245819,250.179688 414.114441,206.757095 473.064362,169.888138 
	C496.474792,155.246582 520.802490,142.071625 545.043640,128.060928 
M1456.899292,570.501160 
	C1435.735107,563.821594 1414.125366,561.922729 1392.248779,565.529114 
	C1361.557373,570.588684 1335.192993,584.135620 1313.619873,606.808472 
	C1284.835815,637.059875 1272.167969,673.301514 1275.333740,714.528625 
	C1277.962769,748.763672 1291.854126,778.434814 1316.898926,802.417053 
	C1351.317627,835.375488 1392.301392,847.715698 1439.030884,839.772644 
	C1472.872070,834.020386 1500.546875,816.969299 1522.234497,790.348389 
	C1539.311157,769.387085 1549.149414,745.384338 1552.227417,718.534424 
	C1555.308838,691.654297 1551.020264,665.926453 1539.013184,641.826050 
	C1521.718628,607.112732 1494.342529,583.486572 1456.899292,570.501160 
M791.482910,998.027954 
	C783.730652,990.267090 776.660583,981.640381 768.104553,974.899719 
	C736.059692,949.653625 699.452698,940.328979 659.222839,946.787231 
	C623.821472,952.470337 594.786377,969.838684 572.704163,997.989990 
	C547.531982,1030.080688 538.295837,1066.741211 544.821777,1106.969727 
	C550.532654,1142.174194 567.794373,1171.064819 595.757324,1193.101318 
	C627.804443,1218.356567 664.442017,1227.658447 704.670898,1221.231567 
	C740.069946,1215.576050 769.008972,1198.150269 791.253845,1170.113647 
	C814.026978,1141.411377 823.585449,1108.332275 820.699829,1072.001831 
	C818.540771,1044.818115 808.695251,1020.244873 791.482910,998.027954 
M150.593445,724.868103 
	C159.383148,740.262390 170.913391,753.377014 184.831177,764.202148 
	C217.032608,789.248108 253.557907,798.673950 293.787476,792.211182 
	C329.187653,786.524231 358.221161,769.155273 380.301086,741.003906 
	C405.471008,708.912842 414.703979,672.251831 408.177216,632.024841 
	C402.465454,596.821228 385.203064,567.931641 357.240387,545.896545 
	C325.193573,520.642944 288.556763,511.341003 248.328598,517.768677 
	C212.930511,523.424622 184.087234,540.924011 161.725357,568.867798 
	C143.931152,591.103882 134.179733,616.728516 132.139435,645.019653 
	C130.111649,673.137329 136.253540,699.643555 150.593445,724.868103 
M1542.172974,1783.919800 
	C1545.963135,1783.402222 1549.773315,1783.000122 1553.540527,1782.349243 
	C1588.851929,1776.248413 1617.972412,1759.336914 1640.116211,1731.226685 
	C1665.357666,1699.184204 1674.656860,1662.554688 1668.232910,1622.336914 
	C1662.580322,1586.948242 1645.250854,1557.902710 1617.119629,1535.794800 
	C1585.056030,1510.596313 1548.422729,1501.345947 1508.199707,1507.791992 
	C1477.637695,1512.689697 1451.659912,1526.699829 1430.205933,1549.193237 
	C1407.319824,1573.187988 1394.807007,1601.849731 1392.186401,1634.611206 
	C1389.998535,1661.963379 1395.620483,1688.017090 1409.088867,1712.083130 
	C1424.735107,1740.040894 1447.245117,1760.472900 1476.787720,1773.146851 
	C1497.425537,1782.000488 1518.963867,1785.048828 1542.172974,1783.919800 
M870.015137,1712.520874 
	C866.005554,1702.672852 862.873169,1692.347534 857.822205,1683.066284 
	C842.505676,1654.921143 819.847290,1634.507202 790.272522,1621.904541 
	C767.374939,1612.146973 743.572998,1608.887939 718.907410,1611.958618 
	C683.077148,1616.419434 653.217346,1632.508667 630.009155,1659.896973 
	C603.942627,1690.658569 593.276245,1726.590698 597.966492,1766.761230 
	C602.155090,1802.636108 618.315857,1832.515137 645.645081,1855.780396 
	C676.339172,1881.910034 712.239807,1892.675293 752.434814,1888.069336 
	C788.326477,1883.956421 818.406433,1868.013062 841.533325,1840.577515 
	C872.878540,1803.392578 882.067322,1760.552490 870.015137,1712.520874 
M837.003479,167.629242 
	C837.542847,177.583954 837.196960,187.681931 838.780640,197.467651 
	C844.504639,232.835480 861.627869,261.926758 889.732178,284.081879 
	C921.766785,309.335297 958.389771,318.652985 998.607971,312.244141 
	C1033.995728,306.605011 1063.043701,289.283600 1085.167725,261.164642 
	C1110.386963,229.111755 1119.663208,192.476212 1113.218384,152.260239 
	C1107.546997,116.871262 1090.199219,87.836388 1062.061401,65.746468 
	C1029.988770,40.567493 993.350342,31.339443 953.127319,37.802094 
	C922.193176,42.772293 895.962524,57.037437 874.469238,79.970139 
	C851.570984,104.401840 839.521667,133.458984 837.003479,167.629242 
M1571.219849,1255.235962 
	C1575.322876,1264.516235 1578.679932,1274.217896 1583.646484,1283.010376 
	C1623.484009,1353.534546 1714.675049,1378.006226 1784.554199,1337.194702 
	C1857.498413,1294.592651 1879.938843,1201.076782 1834.273926,1129.996948 
	C1794.158325,1067.554932 1712.409180,1045.231812 1645.809204,1078.532837 
	C1580.594971,1111.140991 1548.762207,1185.990479 1571.219849,1255.235962 
M402.438049,1147.039185 
	C377.635986,1146.798096 354.073242,1151.970825 332.238525,1163.864136 
	C282.797180,1190.794556 256.107941,1232.805298 253.353409,1288.708618 
	C251.208771,1332.234619 267.205505,1369.579834 298.509766,1400.100586 
	C344.834991,1445.266602 418.406708,1454.614380 473.673340,1420.875732 
	C527.956360,1387.737305 552.376404,1338.260498 545.553162,1275.126709 
	C537.848083,1203.832764 475.244476,1148.394043 402.438049,1147.039185 
M1162.750610,662.285095 
	C1167.121826,660.233765 1171.620117,658.414001 1175.844849,656.095642 
	C1225.912720,628.620178 1252.084351,586.018188 1254.814697,529.256897 
	C1256.022095,504.156494 1250.167480,480.220917 1238.063477,458.106659 
	C1210.643555,408.010040 1167.964111,381.889435 1111.198975,379.184326 
	C1086.097046,377.988098 1062.175537,383.871674 1040.052734,395.958893 
	C990.472595,423.047852 963.869141,465.258453 961.339233,521.365662 
	C959.376404,564.896545 974.899292,602.857605 1007.113525,632.356323 
	C1052.230103,673.669861 1104.382568,683.319458 1162.750610,662.285095 
M1092.317871,1230.777954 
	C1043.593994,1258.468384 1017.969910,1300.561523 1015.187134,1356.280273 
	C1013.924988,1381.553223 1019.766479,1405.656494 1031.953369,1427.928467 
	C1059.269409,1477.849731 1101.819092,1503.925049 1158.345337,1506.808472 
	C1183.617065,1508.097412 1207.720093,1502.213135 1229.985840,1490.017090 
	C1279.894043,1462.679565 1305.950684,1420.118164 1308.809082,1363.590332 
	C1310.087036,1338.317505 1304.186523,1314.220947 1291.989624,1291.955688 
	C1264.747681,1242.226440 1222.337402,1216.188965 1166.025146,1213.195923 
	C1140.222046,1211.824463 1115.783447,1218.143799 1092.317871,1230.777954 
M740.017700,427.517395 
	C730.889709,401.439117 716.375977,378.774750 694.505310,361.856232 
	C644.497314,323.171417 590.425842,316.886475 533.375854,344.862976 
	C478.889465,371.582336 445.938049,435.108978 455.435028,494.922302 
	C463.532410,545.921021 490.240509,584.179260 536.999695,606.886841 
	C583.568237,629.501953 630.263184,627.525391 674.851257,601.748962 
	C735.985840,566.406860 762.186707,495.259857 740.017700,427.517395 
z"/>
<path fill="#8C999C" opacity="1.000000" stroke="none" 
	d="
M1457.277588,570.621338 
	C1494.342529,583.486572 1521.718628,607.112732 1539.013184,641.826050 
	C1551.020264,665.926453 1555.308838,691.654297 1552.227417,718.534424 
	C1549.149414,745.384338 1539.311157,769.387085 1522.234497,790.348389 
	C1500.546875,816.969299 1472.872070,834.020386 1439.030884,839.772644 
	C1392.301392,847.715698 1351.317627,835.375488 1316.898926,802.417053 
	C1291.854126,778.434814 1277.962769,748.763672 1275.333740,714.528625 
	C1272.167969,673.301514 1284.835815,637.059875 1313.619873,606.808472 
	C1335.192993,584.135620 1361.557373,570.588684 1392.248779,565.529114 
	C1414.125366,561.922729 1435.735107,563.821594 1457.277588,570.621338 
M1343.905640,785.586548 
	C1346.875854,788.257446 1349.787354,790.997131 1352.825073,793.588989 
	C1398.662720,832.697998 1471.796143,823.128357 1506.067749,773.554382 
	C1538.409790,726.771667 1530.596313,667.314148 1487.264404,630.469543 
	C1440.781250,590.945435 1367.192017,601.038757 1333.160156,651.605957 
	C1304.397583,694.343750 1308.432251,746.881470 1343.905640,785.586548 
z"/>
<path fill="#8C999C" opacity="1.000000" stroke="none" 
	d="
M791.715332,998.300415 
	C808.695251,1020.244873 818.540771,1044.818115 820.699829,1072.001831 
	C823.585449,1108.332275 814.026978,1141.411377 791.253845,1170.113647 
	C769.008972,1198.150269 740.069946,1215.576050 704.670898,1221.231567 
	C664.442017,1227.658447 627.804443,1218.356567 595.757324,1193.101318 
	C567.794373,1171.064819 550.532654,1142.174194 544.821777,1106.969727 
	C538.295837,1066.741211 547.531982,1030.080688 572.704163,997.989990 
	C594.786377,969.838684 623.821472,952.470337 659.222839,946.787231 
	C699.452698,940.328979 736.059692,949.653625 768.104553,974.899719 
	C776.660583,981.640381 783.730652,990.267090 791.715332,998.300415 
M645.276306,983.693298 
	C602.253540,998.984985 573.620178,1037.999268 573.114197,1082.017822 
	C572.380310,1145.856445 625.882141,1195.073120 689.659668,1189.228638 
	C750.009216,1183.698364 794.089722,1125.820679 783.340942,1066.224854 
	C771.754456,1001.984009 708.464355,963.833191 645.276306,983.693298 
z"/>
<path fill="#8C999C" opacity="1.000000" stroke="none" 
	d="
M150.399689,724.555603 
	C136.253540,699.643555 130.111649,673.137329 132.139435,645.019653 
	C134.179733,616.728516 143.931152,591.103882 161.725357,568.867798 
	C184.087234,540.924011 212.930511,523.424622 248.328598,517.768677 
	C288.556763,511.341003 325.193573,520.642944 357.240387,545.896545 
	C385.203064,567.931641 402.465454,596.821228 408.177216,632.024841 
	C414.703979,672.251831 405.471008,708.912842 380.301086,741.003906 
	C358.221161,769.155273 329.187653,786.524231 293.787476,792.211182 
	C253.557907,798.673950 217.032608,789.248108 184.831177,764.202148 
	C170.913391,753.377014 159.383148,740.262390 150.399689,724.555603 
M251.148590,550.490784 
	C194.104202,561.332581 157.598434,609.085266 162.805298,666.051270 
	C167.586655,718.362122 213.433655,760.730469 266.243805,760.776611 
	C305.514404,760.810913 336.211609,743.962097 357.713928,711.005310 
	C385.144501,668.962158 376.555511,608.864746 338.697693,576.211731 
	C313.663147,554.618958 284.804535,545.918640 251.148590,550.490784 
z"/>
<path fill="#8C999C" opacity="1.000000" stroke="none" 
	d="
M1541.702759,1783.940918 
	C1518.963867,1785.048828 1497.425537,1782.000488 1476.787720,1773.146851 
	C1447.245117,1760.472900 1424.735107,1740.040894 1409.088867,1712.083130 
	C1395.620483,1688.017090 1389.998535,1661.963379 1392.186401,1634.611206 
	C1394.807007,1601.849731 1407.319824,1573.187988 1430.205933,1549.193237 
	C1451.659912,1526.699829 1477.637695,1512.689697 1508.199707,1507.791992 
	C1548.422729,1501.345947 1585.056030,1510.596313 1617.119629,1535.794800 
	C1645.250854,1557.902710 1662.580322,1586.948242 1668.232910,1622.336914 
	C1674.656860,1662.554688 1665.357666,1699.184204 1640.116211,1731.226685 
	C1617.972412,1759.336914 1588.851929,1776.248413 1553.540527,1782.349243 
	C1549.773315,1783.000122 1545.963135,1783.402222 1541.702759,1783.940918 
M1432.836792,1605.389038 
	C1416.067627,1650.226440 1427.721313,1696.260376 1463.440796,1726.279297 
	C1508.006348,1763.732178 1574.746948,1757.680908 1612.075195,1712.802490 
	C1650.913452,1666.108521 1643.090576,1596.982056 1594.848877,1560.581299 
	C1539.491821,1518.811401 1459.786987,1540.543701 1432.836792,1605.389038 
z"/>
<path fill="#8C999C" opacity="1.000000" stroke="none" 
	d="
M870.136108,1712.910156 
	C882.067322,1760.552490 872.878540,1803.392578 841.533325,1840.577515 
	C818.406433,1868.013062 788.326477,1883.956421 752.434814,1888.069336 
	C712.239807,1892.675293 676.339172,1881.910034 645.645081,1855.780396 
	C618.315857,1832.515137 602.155090,1802.636108 597.966492,1766.761230 
	C593.276245,1726.590698 603.942627,1690.658569 630.009155,1659.896973 
	C653.217346,1632.508667 683.077148,1616.419434 718.907410,1611.958618 
	C743.572998,1608.887939 767.374939,1612.146973 790.272522,1621.904541 
	C819.847290,1634.507202 842.505676,1654.921143 857.822205,1683.066284 
	C862.873169,1692.347534 866.005554,1702.672852 870.136108,1712.910156 
M728.327515,1855.227905 
	C731.315796,1855.447510 734.302551,1855.833984 737.292664,1855.862061 
	C800.932190,1856.460571 850.100098,1802.992676 844.247742,1739.594116 
	C839.390198,1686.972290 794.777832,1645.353027 741.908936,1644.121460 
	C678.098755,1642.635254 627.813721,1696.598022 633.737244,1760.204712 
	C638.366150,1809.909180 678.008057,1850.082031 728.327515,1855.227905 
z"/>
<path fill="#8C999C" opacity="1.000000" stroke="none" 
	d="
M837.006348,167.148468 
	C839.521667,133.458984 851.570984,104.401840 874.469238,79.970139 
	C895.962524,57.037437 922.193176,42.772293 953.127319,37.802094 
	C993.350342,31.339443 1029.988770,40.567493 1062.061401,65.746468 
	C1090.199219,87.836388 1107.546997,116.871262 1113.218384,152.260239 
	C1119.663208,192.476212 1110.386963,229.111755 1085.167725,261.164642 
	C1063.043701,289.283600 1033.995728,306.605011 998.607971,312.244141 
	C958.389771,318.652985 921.766785,309.335297 889.732178,284.081879 
	C861.627869,261.926758 844.504639,232.835480 838.780640,197.467651 
	C837.196960,187.681931 837.542847,177.583954 837.006348,167.148468 
M1011.220154,75.209061 
	C966.066284,60.434059 919.574158,74.356186 891.689880,111.002609 
	C857.418945,156.042557 864.716370,219.697159 908.334045,256.187958 
	C954.713562,294.989288 1024.356934,286.990387 1060.520020,238.708679 
	C1103.307495,181.582382 1079.078125,100.145279 1011.220154,75.209061 
z"/>
<path fill="#6D797D" opacity="1.000000" stroke="none" 
	d="
M1571.100342,1254.857910 
	C1548.762207,1185.990479 1580.594971,1111.140991 1645.809204,1078.532837 
	C1712.409180,1045.231812 1794.158325,1067.554932 1834.273926,1129.996948 
	C1879.938843,1201.076782 1857.498413,1294.592651 1784.554199,1337.194702 
	C1714.675049,1378.006226 1623.484009,1353.534546 1583.646484,1283.010376 
	C1578.679932,1274.217896 1575.322876,1264.516235 1571.100342,1254.857910 
M1631.979370,1287.495972 
	C1659.288574,1317.909058 1693.273193,1332.477539 1734.191650,1330.321655 
	C1803.462891,1326.672363 1857.087769,1262.833008 1849.007690,1193.749878 
	C1838.802490,1106.498047 1746.298828,1056.796143 1668.603149,1097.726196 
	C1624.689087,1120.860107 1602.924438,1159.004883 1602.437378,1208.432007 
	C1602.146729,1237.920532 1612.628906,1264.184448 1631.979370,1287.495972 
z"/>
<path fill="#6D797D" opacity="1.000000" stroke="none" 
	d="
M402.923279,1147.040894 
	C475.244476,1148.394043 537.848083,1203.832764 545.553162,1275.126709 
	C552.376404,1338.260498 527.956360,1387.737305 473.673340,1420.875732 
	C418.406708,1454.614380 344.834991,1445.266602 298.509766,1400.100586 
	C267.205505,1369.579834 251.208771,1332.234619 253.353409,1288.708618 
	C256.107941,1232.805298 282.797180,1190.794556 332.238525,1163.864136 
	C354.073242,1151.970825 377.635986,1146.798096 402.923279,1147.040894 
M335.104675,1397.424561 
	C382.229950,1428.458008 445.760773,1423.251953 486.765411,1384.996826 
	C537.080078,1338.056152 540.296326,1259.807495 493.950531,1210.183105 
	C442.867310,1155.486084 356.452759,1157.366821 308.358276,1214.222534 
	C260.800903,1270.443359 272.968109,1355.514526 335.104675,1397.424561 
z"/>
<path fill="#6D797D" opacity="1.000000" stroke="none" 
	d="
M1162.392334,662.423279 
	C1104.382568,683.319458 1052.230103,673.669861 1007.113525,632.356323 
	C974.899292,602.857605 959.376404,564.896545 961.339233,521.365662 
	C963.869141,465.258453 990.472595,423.047852 1040.052734,395.958893 
	C1062.175537,383.871674 1086.097046,377.988098 1111.198975,379.184326 
	C1167.964111,381.889435 1210.643555,408.010040 1238.063477,458.106659 
	C1250.167480,480.220917 1256.022095,504.156494 1254.814697,529.256897 
	C1252.084351,586.018188 1225.912720,628.620178 1175.844849,656.095642 
	C1171.620117,658.414001 1167.121826,660.233765 1162.392334,662.423279 
M1157.400635,647.002991 
	C1204.380127,624.139648 1231.336670,578.661621 1228.356201,527.294617 
	C1224.300415,457.393616 1161.923462,404.527405 1092.244629,411.936249 
	C1021.781433,419.428497 972.276550,483.564301 982.777771,553.755371 
	C994.888794,634.706543 1082.840454,682.016785 1157.400635,647.002991 
z"/>
<path fill="#6D797D" opacity="1.000000" stroke="none" 
	d="
M1092.649902,1230.612183 
	C1115.783447,1218.143799 1140.222046,1211.824463 1166.025146,1213.195923 
	C1222.337402,1216.188965 1264.747681,1242.226440 1291.989624,1291.955688 
	C1304.186523,1314.220947 1310.087036,1338.317505 1308.809082,1363.590332 
	C1305.950684,1420.118164 1279.894043,1462.679565 1229.985840,1490.017090 
	C1207.720093,1502.213135 1183.617065,1508.097412 1158.345337,1506.808472 
	C1101.819092,1503.925049 1059.269409,1477.849731 1031.953369,1427.928467 
	C1019.766479,1405.656494 1013.924988,1381.553223 1015.187134,1356.280273 
	C1017.969910,1300.561523 1043.593994,1258.468384 1092.649902,1230.612183 
M1047.690796,1297.273926 
	C1036.334595,1318.301270 1031.183228,1340.684570 1032.618774,1364.608276 
	C1036.821777,1434.657471 1098.844482,1487.342285 1168.660278,1480.074707 
	C1239.406494,1472.710205 1289.254272,1407.689575 1278.079956,1337.349365 
	C1268.558960,1277.416382 1216.336670,1232.414917 1155.681152,1233.409668 
	C1108.347534,1234.185913 1072.293945,1255.754883 1047.690796,1297.273926 
z"/>
<path fill="#6D797D" opacity="1.000000" stroke="none" 
	d="
M740.146118,427.890259 
	C762.186707,495.259857 735.985840,566.406860 674.851257,601.748962 
	C630.263184,627.525391 583.568237,629.501953 536.999695,606.886841 
	C490.240509,584.179260 463.532410,545.921021 455.435028,494.922302 
	C445.938049,435.108978 478.889465,371.582336 533.375854,344.862976 
	C590.425842,316.886475 644.497314,323.171417 694.505310,361.856232 
	C716.375977,378.774750 730.889709,401.439117 740.146118,427.890259 
M558.486816,597.150391 
	C574.862427,602.911072 591.639465,605.391052 609.052185,604.401367 
	C676.213989,600.584167 728.800659,541.196960 724.383057,473.895630 
	C719.841492,404.706421 662.241394,353.606049 593.342285,357.641724 
	C528.232727,361.455414 477.049103,415.932312 477.222443,481.232910 
	C477.359070,532.696350 509.519531,578.888794 558.486816,597.150391 
z"/>
<path fill="#464C4D" opacity="1.000000" stroke="none" 
	d="
M1343.657959,785.330444 
	C1308.432251,746.881470 1304.397583,694.343750 1333.160156,651.605957 
	C1367.192017,601.038757 1440.781250,590.945435 1487.264404,630.469543 
	C1530.596313,667.314148 1538.409790,726.771667 1506.067749,773.554382 
	C1471.796143,823.128357 1398.662720,832.697998 1352.825073,793.588989 
	C1349.787354,790.997131 1346.875854,788.257446 1343.657959,785.330444 
z"/>
<path fill="#464C4D" opacity="1.000000" stroke="none" 
	d="
M645.655884,983.575684 
	C708.464355,963.833191 771.754456,1001.984009 783.340942,1066.224854 
	C794.089722,1125.820679 750.009216,1183.698364 689.659668,1189.228638 
	C625.882141,1195.073120 572.380310,1145.856445 573.114197,1082.017822 
	C573.620178,1037.999268 602.253540,998.984985 645.655884,983.575684 
z"/>
<path fill="#464C4D" opacity="1.000000" stroke="none" 
	d="
M251.582733,550.419678 
	C284.804535,545.918640 313.663147,554.618958 338.697693,576.211731 
	C376.555511,608.864746 385.144501,668.962158 357.713928,711.005310 
	C336.211609,743.962097 305.514404,760.810913 266.243805,760.776611 
	C213.433655,760.730469 167.586655,718.362122 162.805298,666.051270 
	C157.598434,609.085266 194.104202,561.332581 251.582733,550.419678 
z"/>
<path fill="#464C4D" opacity="1.000000" stroke="none" 
	d="
M1432.982910,1605.032471 
	C1459.786987,1540.543701 1539.491821,1518.811401 1594.848877,1560.581299 
	C1643.090576,1596.982056 1650.913452,1666.108521 1612.075195,1712.802490 
	C1574.746948,1757.680908 1508.006348,1763.732178 1463.440796,1726.279297 
	C1427.721313,1696.260376 1416.067627,1650.226440 1432.982910,1605.032471 
z"/>
<path fill="#464C4D" opacity="1.000000" stroke="none" 
	d="
M727.877563,1855.188965 
	C678.008057,1850.082031 638.366150,1809.909180 633.737244,1760.204712 
	C627.813721,1696.598022 678.098755,1642.635254 741.908936,1644.121460 
	C794.777832,1645.353027 839.390198,1686.972290 844.247742,1739.594116 
	C850.100098,1802.992676 800.932190,1856.460571 737.292664,1855.862061 
	C734.302551,1855.833984 731.315796,1855.447510 727.877563,1855.188965 
z"/>
<path fill="#464C4D" opacity="1.000000" stroke="none" 
	d="
M1011.588440,75.346436 
	C1079.078125,100.145279 1103.307495,181.582382 1060.520020,238.708679 
	C1024.356934,286.990387 954.713562,294.989288 908.334045,256.187958 
	C864.716370,219.697159 857.418945,156.042557 891.689880,111.002609 
	C919.574158,74.356186 966.066284,60.434059 1011.588440,75.346436 
z"/>
<path fill="#1D2021" opacity="1.000000" stroke="none" 
	d="
M1631.747070,1287.226807 
	C1612.628906,1264.184448 1602.146729,1237.920532 1602.437378,1208.432007 
	C1602.924438,1159.004883 1624.689087,1120.860107 1668.603149,1097.726196 
	C1746.298828,1056.796143 1838.802490,1106.498047 1849.007690,1193.749878 
	C1857.087769,1262.833008 1803.462891,1326.672363 1734.191650,1330.321655 
	C1693.273193,1332.477539 1659.288574,1317.909058 1631.747070,1287.226807 
z"/>
<path fill="#1D2021" opacity="1.000000" stroke="none" 
	d="
M334.804077,1397.224487 
	C272.968109,1355.514526 260.800903,1270.443359 308.358276,1214.222534 
	C356.452759,1157.366821 442.867310,1155.486084 493.950531,1210.183105 
	C540.296326,1259.807495 537.080078,1338.056152 486.765411,1384.996826 
	C445.760773,1423.251953 382.229950,1428.458008 334.804077,1397.224487 
z"/>
<path fill="#1D2021" opacity="1.000000" stroke="none" 
	d="
M1157.060425,647.162048 
	C1082.840454,682.016785 994.888794,634.706543 982.777771,553.755371 
	C972.276550,483.564301 1021.781433,419.428497 1092.244629,411.936249 
	C1161.923462,404.527405 1224.300415,457.393616 1228.356201,527.294617 
	C1231.336670,578.661621 1204.380127,624.139648 1157.060425,647.162048 
z"/>
<path fill="#1D2021" opacity="1.000000" stroke="none" 
	d="
M1047.859863,1296.944336 
	C1072.293945,1255.754883 1108.347534,1234.185913 1155.681152,1233.409668 
	C1216.336670,1232.414917 1268.558960,1277.416382 1278.079956,1337.349365 
	C1289.254272,1407.689575 1239.406494,1472.710205 1168.660278,1480.074707 
	C1098.844482,1487.342285 1036.821777,1434.657471 1032.618774,1364.608276 
	C1031.183228,1340.684570 1036.334595,1318.301270 1047.859863,1296.944336 
z"/>
<path fill="#1D2021" opacity="1.000000" stroke="none" 
	d="
M558.117432,597.021484 
	C509.519531,578.888794 477.359070,532.696350 477.222443,481.232910 
	C477.049103,415.932312 528.232727,361.455414 593.342285,357.641724 
	C662.241394,353.606049 719.841492,404.706421 724.383057,473.895630 
	C728.800659,541.196960 676.213989,600.584167 609.052185,604.401367 
	C591.639465,605.391052 574.862427,602.911072 558.117432,597.021484 
z"/>
</svg>