<svg id="visual" viewBox="0 0 900 600" width="900" height="600" xmlns="http://www.w3.org/2000/svg" xmlns:xlink="http://www.w3.org/1999/xlink" version="1.1"><g stroke-width="1" stroke-linejoin="bevel"><path d="M300 300L300 0L0 0Z" fill="#13011a" stroke="#13011a"></path><path d="M0 0L0 300L300 300Z" fill="#110217" stroke="#110217"></path><path d="M300 300L600 0L300 0Z" fill="#0d0411" stroke="#0d0411"></path><path d="M300 300L600 300L600 0Z" fill="#13011a" stroke="#13011a"></path><path d="M0 300L0 600L300 300Z" fill="#13011a" stroke="#13011a"></path><path d="M300 300L300 600L600 300Z" fill="#13011a" stroke="#13011a"></path><path d="M0 600L300 600L300 300Z" fill="#110217" stroke="#110217"></path><path d="M300 600L600 600L600 300Z" fill="#14001c" stroke="#14001c"></path><path d="M600 300L900 0L600 0Z" fill="#060606" stroke="#060606"></path><path d="M900 300L900 0L600 300Z" fill="#060606" stroke="#060606"></path><path d="M600 600L900 300L600 300Z" fill="#0f0215" stroke="#0f0215"></path><path d="M600 600L900 600L900 300Z" fill="#080509" stroke="#080509"></path></g></svg>