<svg id="visual" viewBox="0 0 2000 400" width="2000" height="400" xmlns="http://www.w3.org/2000/svg" xmlns:xlink="http://www.w3.org/1999/xlink" version="1.1"><rect x="0" y="0" width="2000" height="400" fill="#311d6a"></rect><path d="M0 247L47.7 251.2C95.3 255.3 190.7 263.7 285.8 261.5C381 259.3 476 246.7 571.2 246.5C666.3 246.3 761.7 258.7 857 266.5C952.3 274.3 1047.7 277.7 1143 281.2C1238.3 284.7 1333.7 288.3 1428.8 287C1524 285.7 1619 279.3 1714.2 272.7C1809.3 266 1904.7 259 1952.3 255.5L2000 252L2000 401L1952.3 401C1904.7 401 1809.3 401 1714.2 401C1619 401 1524 401 1428.8 401C1333.7 401 1238.3 401 1143 401C1047.7 401 952.3 401 857 401C761.7 401 666.3 401 571.2 401C476 401 381 401 285.8 401C190.7 401 95.3 401 47.7 401L0 401Z" fill="#311d6a"></path><path d="M0 312L47.7 311.7C95.3 311.3 190.7 310.7 285.8 307.7C381 304.7 476 299.3 571.2 293.5C666.3 287.7 761.7 281.3 857 277.3C952.3 273.3 1047.7 271.7 1143 269.8C1238.3 268 1333.7 266 1428.8 271.7C1524 277.3 1619 290.7 1714.2 291C1809.3 291.3 1904.7 278.7 1952.3 272.3L2000 266L2000 401L1952.3 401C1904.7 401 1809.3 401 1714.2 401C1619 401 1524 401 1428.8 401C1333.7 401 1238.3 401 1143 401C1047.7 401 952.3 401 857 401C761.7 401 666.3 401 571.2 401C476 401 381 401 285.8 401C190.7 401 95.3 401 47.7 401L0 401Z" fill="#24135e"></path><path d="M0 328L47.7 327.8C95.3 327.7 190.7 327.3 285.8 329.2C381 331 476 335 571.2 332.8C666.3 330.7 761.7 322.3 857 322.2C952.3 322 1047.7 330 1143 327.8C1238.3 325.7 1333.7 313.3 1428.8 308.7C1524 304 1619 307 1714.2 309.7C1809.3 312.3 1904.7 314.7 1952.3 315.8L2000 317L2000 401L1952.3 401C1904.7 401 1809.3 401 1714.2 401C1619 401 1524 401 1428.8 401C1333.7 401 1238.3 401 1143 401C1047.7 401 952.3 401 857 401C761.7 401 666.3 401 571.2 401C476 401 381 401 285.8 401C190.7 401 95.3 401 47.7 401L0 401Z" fill="#170953"></path><path d="M0 334L47.7 337C95.3 340 190.7 346 285.8 345.2C381 344.3 476 336.7 571.2 331.8C666.3 327 761.7 325 857 324.3C952.3 323.7 1047.7 324.3 1143 326.8C1238.3 329.3 1333.7 333.7 1428.8 339.2C1524 344.7 1619 351.3 1714.2 352.3C1809.3 353.3 1904.7 348.7 1952.3 346.3L2000 344L2000 401L1952.3 401C1904.7 401 1809.3 401 1714.2 401C1619 401 1524 401 1428.8 401C1333.7 401 1238.3 401 1143 401C1047.7 401 952.3 401 857 401C761.7 401 666.3 401 571.2 401C476 401 381 401 285.8 401C190.7 401 95.3 401 47.7 401L0 401Z" fill="#090048"></path><path d="M0 362L47.7 360.2C95.3 358.3 190.7 354.7 285.8 354.8C381 355 476 359 571.2 363.7C666.3 368.3 761.7 373.7 857 374.2C952.3 374.7 1047.7 370.3 1143 367.7C1238.3 365 1333.7 364 1428.8 365.8C1524 367.7 1619 372.3 1714.2 375C1809.3 377.7 1904.7 378.3 1952.3 378.7L2000 379L2000 401L1952.3 401C1904.7 401 1809.3 401 1714.2 401C1619 401 1524 401 1428.8 401C1333.7 401 1238.3 401 1143 401C1047.7 401 952.3 401 857 401C761.7 401 666.3 401 571.2 401C476 401 381 401 285.8 401C190.7 401 95.3 401 47.7 401L0 401Z" fill="#000000"></path></svg>