<svg id="visual" viewBox="0 0 900 600" width="900" height="600" xmlns="http://www.w3.org/2000/svg" xmlns:xlink="http://www.w3.org/1999/xlink" version="1.1"><g stroke-width="1" stroke-linejoin="bevel"><path d="M300 300L300 0L0 0Z" fill="#dce0dc" stroke="#dce0dc"></path><path d="M0 0L0 300L300 300Z" fill="#e0e1dc" stroke="#e0e1dc"></path><path d="M300 300L600 0L300 0Z" fill="#d6d9da" stroke="#d6d9da"></path><path d="M300 300L600 300L600 0Z" fill="#d7dbdb" stroke="#d7dbdb"></path><path d="M0 300L0 600L300 300Z" fill="#d5d7d8" stroke="#d5d7d8"></path><path d="M300 300L300 600L600 300Z" fill="#d8dddb" stroke="#d8dddb"></path><path d="M0 600L300 600L300 300Z" fill="#d5d7d8" stroke="#d5d7d8"></path><path d="M300 600L600 600L600 300Z" fill="#e3e2dc" stroke="#e3e2dc"></path><path d="M600 300L900 0L600 0Z" fill="#d8dddb" stroke="#d8dddb"></path><path d="M900 300L900 0L600 300Z" fill="#d8dddb" stroke="#d8dddb"></path><path d="M600 600L900 300L600 300Z" fill="#ece4df" stroke="#ece4df"></path><path d="M600 600L900 600L900 300Z" fill="#d7dbdb" stroke="#d7dbdb"></path></g></svg>