<svg id="visual" viewBox="0 0 2000 400" width="2000" height="400" xmlns="http://www.w3.org/2000/svg" xmlns:xlink="http://www.w3.org/1999/xlink" version="1.1"><path d="M0 69L23.8 67.7C47.7 66.3 95.3 63.7 143 66.3C190.7 69 238.3 77 286 81.7C333.7 86.3 381.3 87.7 428.8 88.3C476.3 89 523.7 89 571.2 79C618.7 69 666.3 49 714 46.3C761.7 43.7 809.3 58.3 857 59.7C904.7 61 952.3 49 1000 48.3C1047.7 47.7 1095.3 58.3 1143 67C1190.7 75.7 1238.3 82.3 1286 79C1333.7 75.7 1381.3 62.3 1428.8 57C1476.3 51.7 1523.7 54.3 1571.2 51.7C1618.7 49 1666.3 41 1714 43C1761.7 45 1809.3 57 1857 65.7C1904.7 74.3 1952.3 79.7 1976.2 82.3L2000 85L2000 0L1976.2 0C1952.3 0 1904.7 0 1857 0C1809.3 0 1761.7 0 1714 0C1666.3 0 1618.7 0 1571.2 0C1523.7 0 1476.3 0 1428.8 0C1381.3 0 1333.7 0 1286 0C1238.3 0 1190.7 0 1143 0C1095.3 0 1047.7 0 1000 0C952.3 0 904.7 0 857 0C809.3 0 761.7 0 714 0C666.3 0 618.7 0 571.2 0C523.7 0 476.3 0 428.8 0C381.3 0 333.7 0 286 0C238.3 0 190.7 0 143 0C95.3 0 47.7 0 23.8 0L0 0Z" fill="#311d6a"></path><path d="M0 101L23.8 99.7C47.7 98.3 95.3 95.7 143 100.3C190.7 105 238.3 117 286 121.7C333.7 126.3 381.3 123.7 428.8 121C476.3 118.3 523.7 115.7 571.2 105.7C618.7 95.7 666.3 78.3 714 76.3C761.7 74.3 809.3 87.7 857 90.3C904.7 93 952.3 85 1000 87.7C1047.7 90.3 1095.3 103.7 1143 112.3C1190.7 121 1238.3 125 1286 121C1333.7 117 1381.3 105 1428.8 100.3C1476.3 95.7 1523.7 98.3 1571.2 98.3C1618.7 98.3 1666.3 95.7 1714 95.7C1761.7 95.7 1809.3 98.3 1857 102.3C1904.7 106.3 1952.3 111.7 1976.2 114.3L2000 117L2000 83L1976.2 80.3C1952.3 77.7 1904.7 72.3 1857 63.7C1809.3 55 1761.7 43 1714 41C1666.3 39 1618.7 47 1571.2 49.7C1523.7 52.3 1476.3 49.7 1428.8 55C1381.3 60.3 1333.7 73.7 1286 77C1238.3 80.3 1190.7 73.7 1143 65C1095.3 56.3 1047.7 45.7 1000 46.3C952.3 47 904.7 59 857 57.7C809.3 56.3 761.7 41.7 714 44.3C666.3 47 618.7 67 571.2 77C523.7 87 476.3 87 428.8 86.3C381.3 85.7 333.7 84.3 286 79.7C238.3 75 190.7 67 143 64.3C95.3 61.7 47.7 64.3 23.8 65.7L0 67Z" fill="#472384"></path><path d="M0 129L23.8 126.3C47.7 123.7 95.3 118.3 143 121.7C190.7 125 238.3 137 286 145C333.7 153 381.3 157 428.8 159C476.3 161 523.7 161 571.2 151C618.7 141 666.3 121 714 115.7C761.7 110.3 809.3 119.7 857 119.7C904.7 119.7 952.3 110.3 1000 115C1047.7 119.7 1095.3 138.3 1143 146.3C1190.7 154.3 1238.3 151.7 1286 148.3C1333.7 145 1381.3 141 1428.8 136.3C1476.3 131.7 1523.7 126.3 1571.2 123.7C1618.7 121 1666.3 121 1714 121.7C1761.7 122.3 1809.3 123.7 1857 129C1904.7 134.3 1952.3 143.7 1976.2 148.3L2000 153L2000 115L1976.2 112.3C1952.3 109.7 1904.7 104.3 1857 100.3C1809.3 96.3 1761.7 93.7 1714 93.7C1666.3 93.7 1618.7 96.3 1571.2 96.3C1523.7 96.3 1476.3 93.7 1428.8 98.3C1381.3 103 1333.7 115 1286 119C1238.3 123 1190.7 119 1143 110.3C1095.3 101.7 1047.7 88.3 1000 85.7C952.3 83 904.7 91 857 88.3C809.3 85.7 761.7 72.3 714 74.3C666.3 76.3 618.7 93.7 571.2 103.7C523.7 113.7 476.3 116.3 428.8 119C381.3 121.7 333.7 124.3 286 119.7C238.3 115 190.7 103 143 98.3C95.3 93.7 47.7 96.3 23.8 97.7L0 99Z" fill="#61279e"></path><path d="M0 185L23.8 189.7C47.7 194.3 95.3 203.7 143 205.7C190.7 207.7 238.3 202.3 286 208.3C333.7 214.3 381.3 231.7 428.8 236.3C476.3 241 523.7 233 571.2 218.3C618.7 203.7 666.3 182.3 714 188.3C761.7 194.3 809.3 227.7 857 232.3C904.7 237 952.3 213 1000 208.3C1047.7 203.7 1095.3 218.3 1143 219C1190.7 219.7 1238.3 206.3 1286 209C1333.7 211.7 1381.3 230.3 1428.8 227C1476.3 223.7 1523.7 198.3 1571.2 196.3C1618.7 194.3 1666.3 215.7 1714 231C1761.7 246.3 1809.3 255.7 1857 254.3C1904.7 253 1952.3 241 1976.2 235L2000 229L2000 151L1976.2 146.3C1952.3 141.7 1904.7 132.3 1857 127C1809.3 121.7 1761.7 120.3 1714 119.7C1666.3 119 1618.7 119 1571.2 121.7C1523.7 124.3 1476.3 129.7 1428.8 134.3C1381.3 139 1333.7 143 1286 146.3C1238.3 149.7 1190.7 152.3 1143 144.3C1095.3 136.3 1047.7 117.7 1000 113C952.3 108.3 904.7 117.7 857 117.7C809.3 117.7 761.7 108.3 714 113.7C666.3 119 618.7 139 571.2 149C523.7 159 476.3 159 428.8 157C381.3 155 333.7 151 286 143C238.3 135 190.7 123 143 119.7C95.3 116.3 47.7 121.7 23.8 124.3L0 127Z" fill="#7d29b8"></path><path d="M0 345L23.8 340.3C47.7 335.7 95.3 326.3 143 323C190.7 319.7 238.3 322.3 286 323.7C333.7 325 381.3 325 428.8 329C476.3 333 523.7 341 571.2 341C618.7 341 666.3 333 714 334.3C761.7 335.7 809.3 346.3 857 348.3C904.7 350.3 952.3 343.7 1000 341.7C1047.7 339.7 1095.3 342.3 1143 338.3C1190.7 334.3 1238.3 323.7 1286 322.3C1333.7 321 1381.3 329 1428.8 329.7C1476.3 330.3 1523.7 323.7 1571.2 318.3C1618.7 313 1666.3 309 1714 311.7C1761.7 314.3 1809.3 323.7 1857 327.7C1904.7 331.7 1952.3 330.3 1976.2 329.7L2000 329L2000 227L1976.2 233C1952.3 239 1904.7 251 1857 252.3C1809.3 253.7 1761.7 244.3 1714 229C1666.3 213.7 1618.7 192.3 1571.2 194.3C1523.7 196.3 1476.3 221.7 1428.8 225C1381.3 228.3 1333.7 209.7 1286 207C1238.3 204.3 1190.7 217.7 1143 217C1095.3 216.3 1047.7 201.7 1000 206.3C952.3 211 904.7 235 857 230.3C809.3 225.7 761.7 192.3 714 186.3C666.3 180.3 618.7 201.7 571.2 216.3C523.7 231 476.3 239 428.8 234.3C381.3 229.7 333.7 212.3 286 206.3C238.3 200.3 190.7 205.7 143 203.7C95.3 201.7 47.7 192.3 23.8 187.7L0 183Z" fill="#9c27d1"></path><path d="M0 365L23.8 363.7C47.7 362.3 95.3 359.7 143 362.3C190.7 365 238.3 373 286 377.7C333.7 382.3 381.3 383.7 428.8 383.7C476.3 383.7 523.7 382.3 571.2 378.3C618.7 374.3 666.3 367.7 714 368.3C761.7 369 809.3 377 857 380.3C904.7 383.7 952.3 382.3 1000 379C1047.7 375.7 1095.3 370.3 1143 369C1190.7 367.7 1238.3 370.3 1286 373C1333.7 375.7 1381.3 378.3 1428.8 379C1476.3 379.7 1523.7 378.3 1571.2 375C1618.7 371.7 1666.3 366.3 1714 365C1761.7 363.7 1809.3 366.3 1857 367C1904.7 367.7 1952.3 366.3 1976.2 365.7L2000 365L2000 327L1976.2 327.7C1952.3 328.3 1904.7 329.7 1857 325.7C1809.3 321.7 1761.7 312.3 1714 309.7C1666.3 307 1618.7 311 1571.2 316.3C1523.7 321.7 1476.3 328.3 1428.8 327.7C1381.3 327 1333.7 319 1286 320.3C1238.3 321.7 1190.7 332.3 1143 336.3C1095.3 340.3 1047.7 337.7 1000 339.7C952.3 341.7 904.7 348.3 857 346.3C809.3 344.3 761.7 333.7 714 332.3C666.3 331 618.7 339 571.2 339C523.7 339 476.3 331 428.8 327C381.3 323 333.7 323 286 321.7C238.3 320.3 190.7 317.7 143 321C95.3 324.3 47.7 333.7 23.8 338.3L0 343Z" fill="#bd1fe9"></path><path d="M0 401L23.8 401C47.7 401 95.3 401 143 401C190.7 401 238.3 401 286 401C333.7 401 381.3 401 428.8 401C476.3 401 523.7 401 571.2 401C618.7 401 666.3 401 714 401C761.7 401 809.3 401 857 401C904.7 401 952.3 401 1000 401C1047.7 401 1095.3 401 1143 401C1190.7 401 1238.3 401 1286 401C1333.7 401 1381.3 401 1428.8 401C1476.3 401 1523.7 401 1571.2 401C1618.7 401 1666.3 401 1714 401C1761.7 401 1809.3 401 1857 401C1904.7 401 1952.3 401 1976.2 401L2000 401L2000 363L1976.2 363.7C1952.3 364.3 1904.7 365.7 1857 365C1809.3 364.3 1761.7 361.7 1714 363C1666.3 364.3 1618.7 369.7 1571.2 373C1523.7 376.3 1476.3 377.7 1428.8 377C1381.3 376.3 1333.7 373.7 1286 371C1238.3 368.3 1190.7 365.7 1143 367C1095.3 368.3 1047.7 373.7 1000 377C952.3 380.3 904.7 381.7 857 378.3C809.3 375 761.7 367 714 366.3C666.3 365.7 618.7 372.3 571.2 376.3C523.7 380.3 476.3 381.7 428.8 381.7C381.3 381.7 333.7 380.3 286 375.7C238.3 371 190.7 363 143 360.3C95.3 357.7 47.7 360.3 23.8 361.7L0 363Z" fill="#e100ff"></path></svg>