<svg id="visual" viewBox="0 0 4000 500" width="4000" height="500" xmlns="http://www.w3.org/2000/svg" xmlns:xlink="http://www.w3.org/1999/xlink" version="1.1"><path d="M0 106L83.3 111C166.7 116 333.3 126 500 134.3C666.7 142.7 833.3 149.3 1000 143.5C1166.7 137.7 1333.3 119.3 1500 115.2C1666.7 111 1833.3 121 2000 121C2166.7 121 2333.3 111 2500 111.8C2666.7 112.7 2833.3 124.3 3000 132.7C3166.7 141 3333.3 146 3500 141C3666.7 136 3833.3 121 3916.7 113.5L4000 106L4000 0L3916.7 0C3833.3 0 3666.7 0 3500 0C3333.3 0 3166.7 0 3000 0C2833.3 0 2666.7 0 2500 0C2333.3 0 2166.7 0 2000 0C1833.3 0 1666.7 0 1500 0C1333.3 0 1166.7 0 1000 0C833.3 0 666.7 0 500 0C333.3 0 166.7 0 83.3 0L0 0Z" fill="#090513"></path><path d="M0 166L83.3 172.7C166.7 179.3 333.3 192.7 500 201.8C666.7 211 833.3 216 1000 209.3C1166.7 202.7 1333.3 184.3 1500 179.3C1666.7 174.3 1833.3 182.7 2000 183.5C2166.7 184.3 2333.3 177.7 2500 180.2C2666.7 182.7 2833.3 194.3 3000 201C3166.7 207.7 3333.3 209.3 3500 203.5C3666.7 197.7 3833.3 184.3 3916.7 177.7L4000 171L4000 104L3916.7 111.5C3833.3 119 3666.7 134 3500 139C3333.3 144 3166.7 139 3000 130.7C2833.3 122.3 2666.7 110.7 2500 109.8C2333.3 109 2166.7 119 2000 119C1833.3 119 1666.7 109 1500 113.2C1333.3 117.3 1166.7 135.7 1000 141.5C833.3 147.3 666.7 140.7 500 132.3C333.3 124 166.7 114 83.3 109L0 104Z" fill="#1d222d"></path><path d="M0 256L83.3 259.3C166.7 262.7 333.3 269.3 500 274.3C666.7 279.3 833.3 282.7 1000 278.5C1166.7 274.3 1333.3 262.7 1500 258.5C1666.7 254.3 1833.3 257.7 2000 256C2166.7 254.3 2333.3 247.7 2500 251.8C2666.7 256 2833.3 271 3000 278.5C3166.7 286 3333.3 286 3500 280.2C3666.7 274.3 3833.3 262.7 3916.7 256.8L4000 251L4000 169L3916.7 175.7C3833.3 182.3 3666.7 195.7 3500 201.5C3333.3 207.3 3166.7 205.7 3000 199C2833.3 192.3 2666.7 180.7 2500 178.2C2333.3 175.7 2166.7 182.3 2000 181.5C1833.3 180.7 1666.7 172.3 1500 177.3C1333.3 182.3 1166.7 200.7 1000 207.3C833.3 214 666.7 209 500 199.8C333.3 190.7 166.7 177.3 83.3 170.7L0 164Z" fill="#2c3b49"></path><path d="M0 296L83.3 301.8C166.7 307.7 333.3 319.3 500 325.2C666.7 331 833.3 331 1000 326C1166.7 321 1333.3 311 1500 306.8C1666.7 302.7 1833.3 304.3 2000 302.7C2166.7 301 2333.3 296 2500 299.3C2666.7 302.7 2833.3 314.3 3000 321C3166.7 327.7 3333.3 329.3 3500 326C3666.7 322.7 3833.3 314.3 3916.7 310.2L4000 306L4000 249L3916.7 254.8C3833.3 260.7 3666.7 272.3 3500 278.2C3333.3 284 3166.7 284 3000 276.5C2833.3 269 2666.7 254 2500 249.8C2333.3 245.7 2166.7 252.3 2000 254C1833.3 255.7 1666.7 252.3 1500 256.5C1333.3 260.7 1166.7 272.3 1000 276.5C833.3 280.7 666.7 277.3 500 272.3C333.3 267.3 166.7 260.7 83.3 257.3L0 254Z" fill="#3b5763"></path><path d="M0 356L83.3 360.2C166.7 364.3 333.3 372.7 500 377.7C666.7 382.7 833.3 384.3 1000 379.3C1166.7 374.3 1333.3 362.7 1500 357.7C1666.7 352.7 1833.3 354.3 2000 352.7C2166.7 351 2333.3 346 2500 351C2666.7 356 2833.3 371 3000 376.8C3166.7 382.7 3333.3 379.3 3500 374.3C3666.7 369.3 3833.3 362.7 3916.7 359.3L4000 356L4000 304L3916.7 308.2C3833.3 312.3 3666.7 320.7 3500 324C3333.3 327.3 3166.7 325.7 3000 319C2833.3 312.3 2666.7 300.7 2500 297.3C2333.3 294 2166.7 299 2000 300.7C1833.3 302.3 1666.7 300.7 1500 304.8C1333.3 309 1166.7 319 1000 324C833.3 329 666.7 329 500 323.2C333.3 317.3 166.7 305.7 83.3 299.8L0 294Z" fill="#4d747c"></path><path d="M0 501L83.3 501C166.7 501 333.3 501 500 501C666.7 501 833.3 501 1000 501C1166.7 501 1333.3 501 1500 501C1666.7 501 1833.3 501 2000 501C2166.7 501 2333.3 501 2500 501C2666.7 501 2833.3 501 3000 501C3166.7 501 3333.3 501 3500 501C3666.7 501 3833.3 501 3916.7 501L4000 501L4000 354L3916.7 357.3C3833.3 360.7 3666.7 367.3 3500 372.3C3333.3 377.3 3166.7 380.7 3000 374.8C2833.3 369 2666.7 354 2500 349C2333.3 344 2166.7 349 2000 350.7C1833.3 352.3 1666.7 350.7 1500 355.7C1333.3 360.7 1166.7 372.3 1000 377.3C833.3 382.3 666.7 380.7 500 375.7C333.3 370.7 166.7 362.3 83.3 358.2L0 354Z" fill="#639292"></path></svg>