<svg id="visual" viewBox="0 0 900 600" width="900" height="600" xmlns="http://www.w3.org/2000/svg" xmlns:xlink="http://www.w3.org/1999/xlink" version="1.1"><g stroke-width="1" stroke-linejoin="bevel"><path d="M473 261L386 197L417 267Z" fill="#bfc3c7" stroke="#bfc3c7"></path><path d="M473 261L530 167L386 197Z" fill="#64756d" stroke="#64756d"></path><path d="M386 197L334 220L417 267Z" fill="#444633" stroke="#444633"></path><path d="M530 167L373 114L386 197Z" fill="#738481" stroke="#738481"></path><path d="M386 197L373 114L334 220Z" fill="#bfc3c7" stroke="#bfc3c7"></path><path d="M616 324L582 160L530 167Z" fill="#d3d4d6" stroke="#d3d4d6"></path><path d="M530 167L516 64L373 114Z" fill="#4d5546" stroke="#4d5546"></path><path d="M582 160L516 64L530 167Z" fill="#abb3b7" stroke="#abb3b7"></path><path d="M235 207L277 267L334 220Z" fill="#3c3623" stroke="#3c3623"></path><path d="M334 220L277 267L417 267Z" fill="#3c3623" stroke="#3c3623"></path><path d="M303 0L287 128L373 114Z" fill="#444633" stroke="#444633"></path><path d="M373 114L287 128L334 220Z" fill="#abb3b7" stroke="#abb3b7"></path><path d="M277 267L366 379L417 267Z" fill="#3c3623" stroke="#3c3623"></path><path d="M417 267L523 386L473 261Z" fill="#738481" stroke="#738481"></path><path d="M473 261L616 324L530 167Z" fill="#d3d4d6" stroke="#d3d4d6"></path><path d="M366 379L523 386L417 267Z" fill="#97a3a6" stroke="#97a3a6"></path><path d="M287 128L235 207L334 220Z" fill="#576559" stroke="#576559"></path><path d="M582 160L607 93L516 64Z" fill="#444633" stroke="#444633"></path><path d="M664 104L607 93L582 160Z" fill="#64756d" stroke="#64756d"></path><path d="M523 386L616 324L473 261Z" fill="#97a3a6" stroke="#97a3a6"></path><path d="M503 0L431 0L516 64Z" fill="#abb3b7" stroke="#abb3b7"></path><path d="M516 64L431 0L373 114Z" fill="#849394" stroke="#849394"></path><path d="M616 324L662 219L582 160Z" fill="#abb3b7" stroke="#abb3b7"></path><path d="M580 0L503 0L516 64Z" fill="#849394" stroke="#849394"></path><path d="M523 386L579 407L616 324Z" fill="#d3d4d6" stroke="#d3d4d6"></path><path d="M594 464L579 407L534 514Z" fill="#4d5546" stroke="#4d5546"></path><path d="M303 0L221 118L287 128Z" fill="#444633" stroke="#444633"></path><path d="M287 128L221 118L235 207Z" fill="#abb3b7" stroke="#abb3b7"></path><path d="M277 267L303 419L366 379Z" fill="#576559" stroke="#576559"></path><path d="M366 379L437 508L523 386Z" fill="#4d5546" stroke="#4d5546"></path><path d="M217 332L303 419L277 267Z" fill="#576559" stroke="#576559"></path><path d="M662 219L664 104L582 160Z" fill="#444633" stroke="#444633"></path><path d="M607 93L580 0L516 64Z" fill="#64756d" stroke="#64756d"></path><path d="M130 300L217 332L235 207Z" fill="#bfc3c7" stroke="#bfc3c7"></path><path d="M235 207L217 332L277 267Z" fill="#4d5546" stroke="#4d5546"></path><path d="M431 0L303 0L373 114Z" fill="#bfc3c7" stroke="#bfc3c7"></path><path d="M664 104L580 0L607 93Z" fill="#3c3623" stroke="#3c3623"></path><path d="M720 394L697 332L616 324Z" fill="#849394" stroke="#849394"></path><path d="M616 324L697 332L662 219Z" fill="#64756d" stroke="#64756d"></path><path d="M662 219L794 205L664 104Z" fill="#738481" stroke="#738481"></path><path d="M179 497L324 483L303 419Z" fill="#bfc3c7" stroke="#bfc3c7"></path><path d="M303 419L324 483L366 379Z" fill="#3c3623" stroke="#3c3623"></path><path d="M534 514L579 407L523 386Z" fill="#4d5546" stroke="#4d5546"></path><path d="M579 407L720 394L616 324Z" fill="#64756d" stroke="#64756d"></path><path d="M324 483L437 508L366 379Z" fill="#4d5546" stroke="#4d5546"></path><path d="M130 300L198 385L217 332Z" fill="#4d5546" stroke="#4d5546"></path><path d="M217 332L198 385L303 419Z" fill="#64756d" stroke="#64756d"></path><path d="M303 0L212 0L221 118Z" fill="#3c3623" stroke="#3c3623"></path><path d="M61 181L130 300L235 207Z" fill="#abb3b7" stroke="#abb3b7"></path><path d="M437 508L534 514L523 386Z" fill="#444633" stroke="#444633"></path><path d="M61 181L235 207L221 118Z" fill="#738481" stroke="#738481"></path><path d="M735 537L720 394L594 464Z" fill="#4d5546" stroke="#4d5546"></path><path d="M594 464L720 394L579 407Z" fill="#bfc3c7" stroke="#bfc3c7"></path><path d="M697 332L794 205L662 219Z" fill="#849394" stroke="#849394"></path><path d="M212 0L120 68L221 118Z" fill="#576559" stroke="#576559"></path><path d="M823 331L794 205L697 332Z" fill="#abb3b7" stroke="#abb3b7"></path><path d="M664 104L725 0L580 0Z" fill="#576559" stroke="#576559"></path><path d="M778 66L725 0L664 104Z" fill="#bfc3c7" stroke="#bfc3c7"></path><path d="M794 205L778 66L664 104Z" fill="#d3d4d6" stroke="#d3d4d6"></path><path d="M120 68L61 181L221 118Z" fill="#444633" stroke="#444633"></path><path d="M198 385L179 497L303 419Z" fill="#4d5546" stroke="#4d5546"></path><path d="M324 483L376 600L437 508Z" fill="#64756d" stroke="#64756d"></path><path d="M437 508L507 600L534 514Z" fill="#d3d4d6" stroke="#d3d4d6"></path><path d="M61 410L179 497L198 385Z" fill="#3c3623" stroke="#3c3623"></path><path d="M61 410L198 385L130 300Z" fill="#576559" stroke="#576559"></path><path d="M330 600L376 600L324 483Z" fill="#4d5546" stroke="#4d5546"></path><path d="M376 600L507 600L437 508Z" fill="#d3d4d6" stroke="#d3d4d6"></path><path d="M534 514L568 600L594 464Z" fill="#738481" stroke="#738481"></path><path d="M0 94L0 187L61 181Z" fill="#64756d" stroke="#64756d"></path><path d="M212 0L112 0L120 68Z" fill="#849394" stroke="#849394"></path><path d="M195 600L330 600L324 483Z" fill="#bfc3c7" stroke="#bfc3c7"></path><path d="M829 433L823 331L720 394Z" fill="#64756d" stroke="#64756d"></path><path d="M720 394L823 331L697 332Z" fill="#3c3623" stroke="#3c3623"></path><path d="M900 119L830 0L778 66Z" fill="#64756d" stroke="#64756d"></path><path d="M507 600L568 600L534 514Z" fill="#64756d" stroke="#64756d"></path><path d="M0 323L61 410L130 300Z" fill="#97a3a6" stroke="#97a3a6"></path><path d="M663 600L735 537L594 464Z" fill="#3c3623" stroke="#3c3623"></path><path d="M0 94L61 181L120 68Z" fill="#64756d" stroke="#64756d"></path><path d="M61 181L0 323L130 300Z" fill="#64756d" stroke="#64756d"></path><path d="M568 600L663 600L594 464Z" fill="#576559" stroke="#576559"></path><path d="M900 119L778 66L794 205Z" fill="#97a3a6" stroke="#97a3a6"></path><path d="M778 66L830 0L725 0Z" fill="#bfc3c7" stroke="#bfc3c7"></path><path d="M735 537L829 433L720 394Z" fill="#4d5546" stroke="#4d5546"></path><path d="M900 262L900 178L794 205Z" fill="#576559" stroke="#576559"></path><path d="M61 410L95 508L179 497Z" fill="#97a3a6" stroke="#97a3a6"></path><path d="M179 497L195 600L324 483Z" fill="#64756d" stroke="#64756d"></path><path d="M0 187L0 323L61 181Z" fill="#3c3623" stroke="#3c3623"></path><path d="M61 410L0 465L95 508Z" fill="#bfc3c7" stroke="#bfc3c7"></path><path d="M0 0L0 94L120 68Z" fill="#d3d4d6" stroke="#d3d4d6"></path><path d="M95 508L195 600L179 497Z" fill="#738481" stroke="#738481"></path><path d="M900 262L794 205L823 331Z" fill="#3c3623" stroke="#3c3623"></path><path d="M900 425L900 262L823 331Z" fill="#64756d" stroke="#64756d"></path><path d="M900 178L900 119L794 205Z" fill="#738481" stroke="#738481"></path><path d="M735 537L806 524L829 433Z" fill="#3c3623" stroke="#3c3623"></path><path d="M829 433L900 425L823 331Z" fill="#bfc3c7" stroke="#bfc3c7"></path><path d="M767 600L806 524L735 537Z" fill="#3c3623" stroke="#3c3623"></path><path d="M112 0L0 0L120 68Z" fill="#3c3623" stroke="#3c3623"></path><path d="M0 323L0 435L61 410Z" fill="#576559" stroke="#576559"></path><path d="M95 508L60 600L195 600Z" fill="#97a3a6" stroke="#97a3a6"></path><path d="M663 600L767 600L735 537Z" fill="#64756d" stroke="#64756d"></path><path d="M0 435L0 465L61 410Z" fill="#738481" stroke="#738481"></path><path d="M900 461L829 433L806 524Z" fill="#738481" stroke="#738481"></path><path d="M900 461L900 425L829 433Z" fill="#97a3a6" stroke="#97a3a6"></path><path d="M900 119L900 0L830 0Z" fill="#bfc3c7" stroke="#bfc3c7"></path><path d="M900 600L900 461L806 524Z" fill="#97a3a6" stroke="#97a3a6"></path><path d="M0 600L60 600L95 508Z" fill="#d3d4d6" stroke="#d3d4d6"></path><path d="M0 465L0 600L95 508Z" fill="#4d5546" stroke="#4d5546"></path><path d="M767 600L900 600L806 524Z" fill="#4d5546" stroke="#4d5546"></path></g></svg>